<svg width="40" height="40" viewBox="0 0 40 40" fill="none" xmlns="http://www.w3.org/2000/svg">
<path d="M15.0007 36.6668C15.9211 36.6668 16.6673 35.9206 16.6673 35.0002C16.6673 34.0797 15.9211 33.3335 15.0007 33.3335C14.0802 33.3335 13.334 34.0797 13.334 35.0002C13.334 35.9206 14.0802 36.6668 15.0007 36.6668Z" stroke="#3C64B1" stroke-width="2" stroke-linecap="round" stroke-linejoin="round"/>
<path d="M33.3327 36.6668C34.2532 36.6668 34.9993 35.9206 34.9993 35.0002C34.9993 34.0797 34.2532 33.3335 33.3327 33.3335C32.4122 33.3335 31.666 34.0797 31.666 35.0002C31.666 35.9206 32.4122 36.6668 33.3327 36.6668Z" stroke="#3C64B1" stroke-width="2" stroke-linecap="round" stroke-linejoin="round"/>
<path d="M1.66602 1.6665H8.33268L12.7993 23.9832C12.9518 24.7505 13.3692 25.4398 13.9786 25.9303C14.588 26.4209 15.3505 26.6815 16.1327 26.6665H32.3327C33.1148 26.6815 33.8774 26.4209 34.4868 25.9303C35.0962 25.4398 35.5136 24.7505 35.666 23.9832L38.3327 9.99984H9.99935" stroke="#3C64B1" stroke-width="2" stroke-linecap="round" stroke-linejoin="round"/>
</svg>
