<svg width="32" height="32" viewBox="0 0 32 32" fill="none" xmlns="http://www.w3.org/2000/svg">
<path d="M20.667 9.99984L25.3337 5.33317M28.0004 2.6665L25.3337 5.33317L28.0004 2.6665ZM15.187 15.4798C15.8755 16.1591 16.4228 16.9679 16.7974 17.8596C17.172 18.7512 17.3665 19.7082 17.3697 20.6753C17.373 21.6425 17.1849 22.6007 16.8163 23.4949C16.4476 24.3891 15.9058 25.2015 15.2219 25.8854C14.538 26.5693 13.7256 27.1111 12.8314 27.4797C11.9373 27.8483 10.979 28.0364 10.0119 28.0332C9.04472 28.03 8.08776 27.8354 7.19609 27.4608C6.30442 27.0862 5.49565 26.539 4.81637 25.8505C3.48054 24.4674 2.74138 22.615 2.75809 20.6922C2.7748 18.7695 3.54604 16.9302 4.9057 15.5705C6.26536 14.2108 8.10465 13.4396 10.0274 13.4229C11.9502 13.4062 13.8026 14.1453 15.1857 15.4812L15.187 15.4798ZM15.187 15.4798L20.667 9.99984L15.187 15.4798ZM20.667 9.99984L24.667 13.9998L29.3337 9.33317L25.3337 5.33317L20.667 9.99984Z" stroke="#3C64B1" stroke-width="2" stroke-linecap="round" stroke-linejoin="round"/>
</svg>
