<svg width="40" height="40" viewBox="0 0 40 40" fill="none" xmlns="http://www.w3.org/2000/svg">
<path d="M30 13.3335C32.7614 13.3335 35 11.0949 35 8.3335C35 5.57207 32.7614 3.3335 30 3.3335C27.2386 3.3335 25 5.57207 25 8.3335C25 11.0949 27.2386 13.3335 30 13.3335Z" stroke="#3C64B1" stroke-width="2" stroke-linecap="round" stroke-linejoin="round"/>
<path d="M10 25C12.7614 25 15 22.7614 15 20C15 17.2386 12.7614 15 10 15C7.23858 15 5 17.2386 5 20C5 22.7614 7.23858 25 10 25Z" stroke="#3C64B1" stroke-width="2" stroke-linecap="round" stroke-linejoin="round"/>
<path d="M30 36.6665C32.7614 36.6665 35 34.4279 35 31.6665C35 28.9051 32.7614 26.6665 30 26.6665C27.2386 26.6665 25 28.9051 25 31.6665C25 34.4279 27.2386 36.6665 30 36.6665Z" stroke="#3C64B1" stroke-width="2" stroke-linecap="round" stroke-linejoin="round"/>
<path d="M14.3164 22.5166L25.6997 29.1499" stroke="#3C64B1" stroke-width="2" stroke-linecap="round" stroke-linejoin="round"/>
<path d="M25.6831 10.8501L14.3164 17.4834" stroke="#3C64B1" stroke-width="2" stroke-linecap="round" stroke-linejoin="round"/>
</svg>
