<svg width="571" height="388" viewBox="0 0 571 388" fill="none" xmlns="http://www.w3.org/2000/svg">
<path d="M1.34939 29.4148H570.326V380.815C570.326 384.412 567.411 387.327 563.815 387.327H7.86095C4.26471 387.327 1.34939 384.412 1.34939 380.815V29.4148Z" fill="white" stroke="#3C64B1" stroke-width="1.34722"/>
<path opacity="0.1" d="M0.675781 28.7412H571V380.815C571 384.784 567.783 388 563.815 388H7.86095C3.89268 388 0.675781 384.784 0.675781 380.815V28.7412Z" fill="#3C64B1"/>
<path d="M1.34939 7.18519C1.34939 3.58894 4.26472 0.673611 7.86097 0.673611H563.815C567.411 0.673611 570.326 3.58894 570.326 7.18518V35.2523H1.34939V7.18519Z" fill="white" stroke="#3C64B1" stroke-width="1.34722"/>
<path fill-rule="evenodd" clip-rule="evenodd" d="M48.2779 22.4541C50.758 22.4541 52.7686 20.4436 52.7686 17.9634C52.7686 15.4832 50.758 13.4727 48.2779 13.4727C45.7977 13.4727 43.7871 15.4832 43.7871 17.9634C43.7871 20.4436 45.7977 22.4541 48.2779 22.4541Z" fill="white" stroke="#3C64B1" stroke-width="1.34722"/>
<path fill-rule="evenodd" clip-rule="evenodd" d="M32.1118 22.4541C34.592 22.4541 36.6026 20.4436 36.6026 17.9634C36.6026 15.4832 34.592 13.4727 32.1118 13.4727C29.6317 13.4727 27.6211 15.4832 27.6211 17.9634C27.6211 20.4436 29.6317 22.4541 32.1118 22.4541Z" fill="white" stroke="#3C64B1" stroke-width="1.34722"/>
<path fill-rule="evenodd" clip-rule="evenodd" d="M15.9439 22.4541C18.424 22.4541 20.4346 20.4436 20.4346 17.9634C20.4346 15.4832 18.424 13.4727 15.9439 13.4727C13.4637 13.4727 11.4531 15.4832 11.4531 17.9634C11.4531 20.4436 13.4637 22.4541 15.9439 22.4541Z" fill="white" stroke="#3C64B1" stroke-width="1.34722"/>
</svg>
